<?xml version="1.0" encoding="UTF-8"?>
<!DOCTYPE svg PUBLIC "-//W3C//DTD SVG 1.1//EN" "http://www.w3.org/Graphics/SVG/1.1/DTD/svg11.dtd">
<!-- Creator: CorelDRAW X7 -->
<svg xmlns="http://www.w3.org/2000/svg" xml:space="preserve" version="1.1" style="shape-rendering:geometricPrecision; text-rendering:geometricPrecision; image-rendering:optimizeQuality; fill-rule:evenodd; clip-rule:evenodd" viewBox="0 0 5067 1633" xmlns:xlink="http://www.w3.org/1999/xlink">
 <defs>
  <style type="text/css">
   <![CDATA[
    .str0 {stroke:#797A7C;stroke-width:33.3346}
    .fil1 {fill:none}
    .fil0 {fill:#797A7C}
   ]]>
  </style>
 </defs>
 <g id="Layer_x0020_1">
  <metadata id="CorelCorpID_0Corel-Layer"/>
  <g id="_1030140400">
   <path class="fil0" d="M670 1167c77,-36 117,80 49,106 -74,28 -116,-75 -49,-106zm280 -30l-508 -1c-12,-18 -6,-69 -6,-91 0,-98 -4,-617 2,-658 26,-7 470,-7 515,-2 11,54 1,566 3,711l-6 41zm-313 -821c0,-19 7,-16 29,-16 39,0 89,-7 86,16 -20,14 -97,12 -115,0zm-245 927c12,66 65,79 138,79 72,0 144,0 215,0 197,0 255,34 255,-175 0,-125 8,-802 -1,-864 -11,-69 -69,-81 -141,-81 -71,0 -143,0 -215,0 -219,0 -253,-21 -253,176 0,119 -8,809 2,865z"/>
   <path class="fil0" d="M2481 891c154,-36 174,255 48,288 -89,23 -133,-40 -135,-117 -1,-89 8,-152 87,-171zm-86 310c24,23 45,50 98,56 46,5 89,-6 121,-27 130,-84 125,-344 -18,-403 -125,-53 -191,44 -211,60 -6,-85 4,-66 -86,-66l3 600 92 0 1 -220z"/>
   <path class="fil0" d="M2012 891c154,-36 173,254 48,288 -89,23 -133,-39 -135,-117 -1,-89 8,-152 87,-171zm-101 -65l-77 -2 -4 13 3 584 92 0 1 -220c25,25 42,49 98,56 246,27 281,-357 103,-430 -124,-52 -187,40 -211,60l-5 -61z"/>
   <path class="fil0" d="M1513 750l8 -11 4 11 73 252 -156 0c15,-79 63,-169 71,-252zm-88 324l191 0 55 175 101 -2 -191 -591 -117 0 -190 592 97 0 54 -174z"/>
   <path class="fil0" d="M2899 1142l-22 77c74,47 210,52 289,4 73,-44 161,-211 -66,-313 -44,-20 -93,-35 -110,-71 -25,-52 7,-96 52,-108 63,-16 106,5 157,20l21 -73c-69,-52 -224,-33 -281,19 -81,75 -64,176 13,237 69,55 201,61 196,162 -7,120 -177,77 -249,46z"/>
   <path class="fil0" d="M3748 883c155,-21 167,285 25,303 -154,18 -168,-283 -25,-303zm218 202c57,-317 -358,-369 -409,-98 -59,315 361,367 409,98z"/>
   <path class="fil0" d="M4378 990c19,-147 192,-154 197,-1l-197 1zm284 67c24,-304 -276,-304 -354,-127 -46,105 -20,215 45,276 81,76 184,49 289,26l-16 -67c-111,29 -250,30 -248,-108l284 0z"/>
   <path class="fil0" d="M3330 742l-3 79 -60 0 -2 71 63 0c0,71 -8,210 5,272 18,92 88,102 187,84l-2 -72c-77,6 -97,-3 -98,-86 0,-65 1,-132 1,-198l104 0 -1 -71 -104 0 1 -102 -91 23z"/>
   <path class="fil0" d="M4125 1248c0,-193 -39,-355 131,-344l-2 -90c-92,-5 -103,33 -140,88l-5 -80 -80 -1 1 427 95 0z"/>
   <path class="fil0" d="M2644 407c0,-97 112,-96 111,5 0,98 -111,104 -111,6l0 -11zm-9 107l5 -24c29,66 159,44 165,-72 2,-49 -14,-89 -47,-109 -56,-34 -86,4 -114,20l0 -128 -46 0 -3 319 40 -6z"/>
   <path class="fil0" d="M1402 263l39 131 -79 -1 40 -130zm-127 258c76,1 42,1 78,-88l96 -2 31 90 50 1 -97 -305 -58 0 -100 304z"/>
   <path class="fil0" d="M4355 380c11,8 5,115 5,137l45 0c7,-81 19,-212 -67,-219 -39,-3 -54,18 -73,32l0 -129 -49 1 0 317 49 3c0,-30 -4,-130 3,-152 14,-42 79,-51 87,10z"/>
   <path class="fil0" d="M3414 435c-21,-111 95,-141 111,-45 17,109 -94,134 -111,45zm23 -131c-128,38 -85,261 67,217 116,-33 93,-265 -67,-217z"/>
   <path class="fil0" d="M1863 481c-15,-57 20,-68 75,-69 0,57 -16,99 -75,69zm-38 -165l7 28c46,-4 98,-37 105,35 -237,14 -95,225 0,119 21,30 -3,24 51,24 -2,-47 3,-154 -13,-187 -26,-52 -104,-41 -150,-19z"/>
   <path class="fil0" d="M3033 389c5,-76 100,-82 98,0l-98 0zm133 119l-6 -26c-51,-6 -119,34 -129,-59l147 0c12,-159 -148,-155 -184,-62 -54,139 101,206 172,147z"/>
   <path class="fil0" d="M2461 413c0,27 3,49 -13,64 -11,10 -39,20 -56,6 -44,-39 17,-74 69,-70zm-5 90l11 -5 2 15 -1 6c3,0 23,2 24,1 30,-6 12,9 17,-17 0,-141 15,-251 -161,-189l7 33c47,-17 94,-34 105,26 -18,11 -57,9 -84,21 -108,50 4,195 80,109z"/>
   <path class="fil0" d="M4510 388c5,-73 99,-80 99,1l-99 -1zm133 125l-6 -34c-66,13 -122,20 -128,-55l146 -1c11,-154 -141,-158 -183,-64 -28,64 -13,204 171,154z"/>
   <path class="fil0" d="M3684 304l-40 0 0 31 -2 187 49 0c0,-41 -3,-92 0,-132 3,-36 34,-69 69,-46 40,21 24,126 24,178l49 -2c0,-86 25,-227 -82,-222 -39,2 -46,21 -66,34l-1 -28z"/>
   <path class="fil0" d="M1760 314c0,-15 7,0 -4,-9l-40 0 -51 165 -56 -169 -48 0 77 220 39 1c23,-15 79,-174 83,-208z"/>
   <path class="fil0" d="M4045 299c-5,3 -2,3 -12,5 -4,1 -14,1 -17,1l0 34 29 0c0,37 -5,126 8,156 8,19 20,28 49,30 43,4 43,-3 41,-37 -61,-14 -50,2 -50,-149l53 0 -1 -38 -52 0 0 -50 -47 10 -1 38z"/>
   <polygon class="fil0" points="2210,520 2231,522 2237,522 2259,521 2259,202 2210,202 "/>
   <polygon class="fil0" points="2870,521 2892,522 2898,522 2919,520 2919,203 2870,201 "/>
   <polygon class="fil0" points="2074,518 2118,518 2119,304 2072,304 "/>
   <path class="fil0" d="M2082 212c-31,16 -10,66 27,50 35,-14 12,-71 -27,-50z"/>
  </g>
  <path class="fil1 str0" d="M244 18l4600 0c110,0 200,90 200,200l0 1200c0,110 -90,200 -200,200l-4600 0c-110,0 -200,-90 -200,-200l0 -1200c0,-110 90,-200 200,-200z"/>
 </g>
</svg>