<?xml version="1.0" encoding="UTF-8"?>
<!DOCTYPE svg PUBLIC "-//W3C//DTD SVG 1.1//EN" "http://www.w3.org/Graphics/SVG/1.1/DTD/svg11.dtd">
<!-- Creator: CorelDRAW X7 -->
<svg xmlns="http://www.w3.org/2000/svg" xml:space="preserve" version="1.1" style="shape-rendering:geometricPrecision; text-rendering:geometricPrecision; image-rendering:optimizeQuality; fill-rule:evenodd; clip-rule:evenodd" viewBox="0 0 5067 1633" xmlns:xlink="http://www.w3.org/1999/xlink">
 <defs>
  <style type="text/css">
   <![CDATA[
    .str0 {stroke:#797A7C;stroke-width:33.3346}
    .str1 {stroke:white;stroke-width:6.66535}
    .fil0 {fill:none}
    .fil1 {fill:#797A7C}
    .fil2 {fill:#797A7C;fill-rule:nonzero}
   ]]>
  </style>
 </defs>
 <g id="Layer_x0020_1">
  <metadata id="CorelCorpID_0Corel-Layer"/>
  <g id="_1008054608">
   <path class="fil0 str0" d="M244 18l4600 0c110,0 200,90 200,200l0 1200c0,110 -90,200 -200,200l-4600 0c-110,0 -200,-90 -200,-200l0 -1200c0,-110 90,-200 200,-200z"/>
   <g>
    <path class="fil1 str1" d="M276 1288c11,-18 466,-455 487,-486 -12,-20 -147,-147 -182,-182 -71,-69 -267,-282 -312,-303 -26,52 -14,170 -14,238l0 505c0,51 -14,203 21,228z"/>
    <path class="fil1" d="M1751 821l-2 71 168 0c6,159 -283,206 -345,12 -31,-96 19,-181 74,-217 32,-21 79,-34 127,-28 60,6 72,30 107,47l47 -47c-104,-104 -267,-91 -365,4 -99,95 -101,262 -3,361 94,95 272,107 372,8 35,-35 78,-120 61,-196 -5,-25 -49,-15 -111,-15 -44,0 -87,0 -130,0z"/>
    <path class="fil1 str1" d="M276 1288c28,31 66,12 94,-5 83,-49 531,-293 566,-318l-167 -163 -6 0c-21,31 -476,468 -487,486z"/>
    <path class="fil1 str1" d="M269 317c45,21 241,234 312,303 35,35 170,162 182,182l6 0c30,-47 138,-121 163,-167 -109,-57 -219,-122 -328,-183 -56,-31 -106,-61 -161,-91 -31,-16 -53,-31 -82,-47 -41,-22 -58,-19 -92,3z"/>
    <path class="fil1" d="M2898 842c120,-44 159,156 54,191 -115,37 -179,-146 -54,-191zm110 224c2,169 -147,135 -171,63l-66 24c35,109 213,139 279,36 48,-74 29,-304 29,-409 -73,0 -61,-6 -76,22 -1,1 -2,3 -3,4 -36,-71 -245,-37 -244,132 1,68 41,116 80,140 90,56 142,5 172,-12z"/>
    <path class="fil1" d="M3788 672c65,0 188,-20 188,84 0,104 -123,84 -190,84l2 -168zm-76 420l72 0 2 -184c73,0 145,7 199,-29 41,-28 79,-84 61,-158 -31,-136 -190,-122 -335,-116l1 487z"/>
    <path class="fil1 str1" d="M769 802l167 163c43,-22 88,-47 129,-71 35,-21 107,-46 103,-97 -5,-55 -162,-110 -236,-162 -25,46 -133,120 -163,167z"/>
    <path class="fil1" d="M4425 958c-6,37 -21,58 -49,70 -86,39 -141,-57 -49,-81 38,-9 68,2 98,11zm-208 -116c14,12 42,23 63,27 25,-24 38,-40 85,-32 38,7 56,26 61,65 -54,-18 -92,-27 -149,-4 -149,62 -42,248 95,197 28,-11 36,-25 53,-39l1 35 71 1c0,-57 0,-113 0,-170 0,-62 -14,-92 -48,-120 -58,-48 -188,-50 -232,40z"/>
    <path class="fil1" d="M2531 840c130,-37 159,165 51,194 -125,33 -170,-160 -51,-194zm-15 -64c-218,55 -136,375 82,322 214,-53 136,-377 -82,-322z"/>
    <path class="fil1" d="M2162 841c120,-38 169,150 58,190 -121,44 -185,-149 -58,-190zm-13 -66c-221,53 -138,378 84,322 78,-20 142,-101 119,-200 -19,-81 -100,-147 -203,-122z"/>
    <path class="fil1" d="M3313 930c6,-100 120,-125 148,-59l-148 59zm231 100l-53 -37c-26,22 -36,44 -86,44 -41,0 -68,-23 -79,-49 68,-33 152,-64 223,-93 -55,-179 -282,-157 -308,14 -32,215 256,241 303,121z"/>
    <path class="fil1" d="M4561 1239l68 2c14,-4 135,-289 156,-339 16,-35 41,-85 51,-122l-78 1 -86 210c-28,-38 -70,-190 -97,-211l-71 0 101 231c28,62 35,51 7,114 -16,36 -41,80 -51,114z"/>
    <polygon class="fil1" points="4091,1073 4093,1093 4164,1092 4165,607 4146,604 4091,604 "/>
    <polygon class="fil1" points="3130,1073 3131,1093 3203,1092 3204,608 3130,603 "/>
   </g>
   <path class="fil2" d="M1622 420l-28 0 -11 -29 -52 0 -11 29 -28 0 51 -129 27 0 52 129zm-48 -51l-18 -48 -17 48 35 0zm62 51l0 -129 26 0 53 87 0 -87 24 0 0 129 -26 0 -52 -85 0 85 -25 0zm131 -129l48 0c11,0 19,1 24,2 8,2 15,6 20,12 5,6 9,13 12,21 3,8 5,19 5,31 0,10 -2,20 -4,27 -4,10 -8,17 -14,23 -5,5 -11,8 -19,11 -5,1 -13,2 -23,2l-49 0 0 -129zm26 22l0 85 20 0c7,0 12,0 16,-1 4,-1 7,-3 10,-5 3,-3 5,-7 7,-13 2,-5 3,-13 3,-23 0,-10 -1,-18 -3,-24 -2,-5 -4,-9 -8,-12 -3,-3 -7,-5 -12,-6 -3,-1 -10,-1 -21,-1l-12 0zm105 107l0 -129 55 0c14,0 24,1 30,3 6,3 11,7 15,13 4,6 6,12 6,20 0,10 -3,18 -9,24 -5,6 -14,10 -25,12 5,3 10,7 14,11 3,4 8,11 15,21l15 25 -31 0 -19 -28c-6,-10 -11,-16 -13,-19 -3,-3 -6,-4 -8,-5 -3,-1 -8,-2 -14,-2l-5 0 0 54 -26 0zm26 -74l19 0c13,0 21,-1 24,-2 3,-1 6,-3 7,-6 2,-2 3,-5 3,-9 0,-5 -1,-8 -4,-11 -2,-3 -5,-4 -9,-5 -3,0 -9,0 -20,0l-20 0 0 33zm99 10c0,-13 2,-24 6,-33 3,-7 7,-13 12,-18 5,-5 11,-9 17,-12 8,-3 17,-5 28,-5 19,0 34,6 46,18 11,12 17,29 17,50 0,21 -6,37 -17,49 -11,12 -27,18 -46,18 -19,0 -34,-6 -46,-18 -11,-12 -17,-28 -17,-49zm27 -1c0,15 4,26 10,34 7,7 16,11 26,11 11,0 19,-4 26,-11 7,-8 10,-19 10,-34 0,-15 -3,-26 -10,-33 -6,-8 -15,-11 -26,-11 -11,0 -19,4 -26,11 -7,7 -10,18 -10,33zm118 65l0 -129 27 0 0 129 -27 0zm52 -129l47 0c11,0 19,1 25,2 8,2 14,6 20,12 5,6 9,13 12,21 3,8 4,19 4,31 0,10 -1,20 -4,27 -3,10 -8,17 -14,23 -4,5 -10,8 -18,11 -6,1 -13,2 -23,2l-49 0 0 -129zm26 22l0 85 19 0c8,0 13,0 16,-1 4,-1 8,-3 11,-5 3,-3 5,-7 7,-13 1,-5 2,-13 2,-23 0,-10 -1,-18 -2,-24 -2,-5 -5,-9 -8,-12 -3,-3 -7,-5 -12,-6 -4,-1 -11,-1 -21,-1l-12 0zm265 107l-28 0 -12 -29 -52 0 -10 29 -28 0 50 -129 28 0 52 129zm-48 -51l-18 -48 -18 48 36 0zm62 51l0 -129 42 0c16,0 26,0 31,2 7,2 13,6 19,12 5,7 7,15 7,26 0,8 -1,14 -4,20 -3,5 -7,9 -11,12 -5,4 -9,6 -14,7 -6,1 -15,1 -27,1l-17 0 0 49 -26 0zm26 -107l0 37 14 0c11,0 17,-1 21,-3 3,-1 6,-3 8,-6 2,-3 3,-6 3,-10 0,-5 -1,-9 -4,-12 -3,-3 -6,-5 -11,-6 -3,0 -9,0 -18,0l-13 0zm95 107l0 -129 42 0c15,0 26,0 31,2 7,2 13,6 18,12 5,7 8,15 8,26 0,8 -2,14 -5,20 -2,5 -6,9 -11,12 -4,4 -8,6 -13,7 -6,1 -15,1 -27,1l-17 0 0 49 -26 0zm26 -107l0 37 14 0c10,0 17,-1 21,-3 3,-1 6,-3 8,-6 2,-3 3,-6 3,-10 0,-5 -2,-9 -4,-12 -3,-3 -7,-5 -11,-6 -3,0 -9,0 -19,0l-12 0zm136 43c0,-13 2,-24 6,-33 3,-7 7,-13 12,-18 5,-5 11,-9 17,-12 8,-3 17,-5 28,-5 19,0 34,6 46,18 11,12 17,29 17,50 0,21 -6,37 -17,49 -12,12 -27,18 -46,18 -19,0 -35,-6 -46,-18 -11,-12 -17,-28 -17,-49zm27 -1c0,15 3,26 10,34 7,7 16,11 26,11 10,0 19,-4 26,-11 6,-8 10,-19 10,-34 0,-15 -3,-26 -10,-33 -7,-8 -15,-11 -26,-11 -11,0 -20,4 -26,11 -7,7 -10,18 -10,33zm119 65l0 -129 26 0 53 87 0 -87 24 0 0 129 -26 0 -53 -85 0 85 -24 0z"/>
  </g>
 </g>
</svg>