<?xml version="1.0" encoding="utf-8"?>
<!-- Generator: Adobe Illustrator 19.0.1, SVG Export Plug-In . SVG Version: 6.00 Build 0)  -->
<svg version="1.1" id="Capa_1" xmlns="http://www.w3.org/2000/svg" xmlns:xlink="http://www.w3.org/1999/xlink" x="0px" y="0px"
	 viewBox="-703 35 512 512" style="enable-background:new -703 35 512 512;" xml:space="preserve">
<style type="text/css">
	.st0{fill:#990066;}
</style>
<path class="st0" d="M-447,67c123.5,0,224,100.5,224,224s-100.5,224-224,224s-224-100.5-224-224S-570.5,67-447,67 M-447,35
	c-141.4,0-256,114.6-256,256s114.6,256,256,256s256-114.6,256-256S-305.6,35-447,35L-447,35z"/>
<g>
	<polygon class="st0" points="-287.5,390 -287.5,192 -397.5,291 	"/>
	<polygon class="st0" points="-447,335.6 -478.4,307.3 -588.4,406.3 -305.6,406.3 -415.6,307.3 	"/>
	<polygon class="st0" points="-305.6,175.7 -588.4,175.7 -447,303 	"/>
	<polygon class="st0" points="-606.5,192 -606.5,390 -496.5,291 	"/>
</g>
</svg>
