<?xml version="1.0" encoding="utf-8"?>
<!-- Generator: Adobe Illustrator 19.0.1, SVG Export Plug-In . SVG Version: 6.00 Build 0)  -->
<svg version="1.1" id="Capa_1" xmlns="http://www.w3.org/2000/svg" xmlns:xlink="http://www.w3.org/1999/xlink" x="0px" y="0px"
	 viewBox="6 -6 512 512" style="enable-background:new 6 -6 512 512;" xml:space="preserve">
<style type="text/css">
	.st0{fill:#990066;}
</style>
<g>
	<path class="st0" d="M262,26c123.5,0,224,100.5,224,224S385.5,474,262,474S38,373.5,38,250S138.5,26,262,26 M262-6
		C120.6-6,6,108.6,6,250s114.6,256,256,256s256-114.6,256-256S403.4-6,262-6L262-6z M404.7,335.6l-1.4-4.4
		c-3.4-10.1-14.5-20.6-24.8-23.4l-37.8-10.3c-10.3-2.8-24.9,1-32.4,8.5l-13.7,13.7c-49.8-13.5-88.8-52.5-102.2-102.3l13.7-13.7
		c7.5-7.5,11.3-22.1,8.5-32.4l-10.3-37.8c-2.8-10.3-13.3-21.4-23.4-24.8l-4.3-1.4c-10.1-3.4-24.5,0-32,7.6L124,135.4
		c-3.7,3.6-6,14-6,14.1c-0.7,65.1,24.8,127.7,70.8,173.7c45.9,45.9,108.3,71.3,173.2,70.8c0.3,0,11.1-2.3,14.7-5.9l20.5-20.5
		C404.7,360.1,408.1,345.7,404.7,335.6z"/>
</g>
</svg>
