<?xml version="1.0" encoding="UTF-8"?>
<!DOCTYPE svg PUBLIC "-//W3C//DTD SVG 1.1//EN" "http://www.w3.org/Graphics/SVG/1.1/DTD/svg11.dtd">
<!-- Creator: CorelDRAW X7 -->
<svg xmlns="http://www.w3.org/2000/svg" xml:space="preserve" version="1.1" style="shape-rendering:geometricPrecision; text-rendering:geometricPrecision; image-rendering:optimizeQuality; fill-rule:evenodd; clip-rule:evenodd"
viewBox="0 0 512 512"
 xmlns:xlink="http://www.w3.org/1999/xlink">
 <defs>
  <style type="text/css">
   <![CDATA[
    .fil0 {fill:#6F6F6F}
   ]]>
  </style>
 </defs>
 <g id="Layer_x0020_1">
  <metadata id="CorelCorpID_0Corel-Layer"/>
  <g id="_744160992">
   <path class="fil0" d="M244 36c54,-8 126,21 163,56 42,41 67,85 73,149 5,64 -19,119 -57,164 -15,19 -36,36 -61,49 -56,30 -124,33 -182,10 -48,-19 -92,-58 -115,-105 -28,-55 -34,-123 -11,-182 11,-25 26,-51 42,-68 28,-30 60,-52 101,-65 26,-7 25,-5 47,-8zm-5 -30c-25,4 -24,2 -53,10 -45,13 -85,42 -113,74 -80,89 -84,224 -9,322 9,14 19,23 30,33 8,9 24,19 35,28 45,28 94,39 151,35 72,-3 134,-47 167,-83 32,-36 61,-93 63,-160l0 -14 -1 -14c-4,-38 -13,-69 -28,-98 -29,-54 -76,-96 -132,-118 -20,-7 -52,-15 -82,-16l-28 1z"/>
   <path class="fil0" d="M244 243c-22,-1 -45,0 -67,0 -12,0 -42,-3 -48,3 -10,7 -9,26 12,26l103 0c1,33 0,70 0,104 0,26 30,26 31,1 0,-34 -1,-71 0,-105l101 0c12,0 20,-3 21,-14 0,-11 -7,-15 -19,-15 -11,0 -23,0 -34,0 -23,0 -45,-1 -69,0 -2,-7 0,-86 0,-105 -1,-26 -31,-25 -31,0 0,20 3,97 0,105z"/>
  </g>
 </g>
</svg>
